<svg width="37" height="34" viewBox="0 0 37 34" fill="none" xmlns="http://www.w3.org/2000/svg">
<path d="M12.3756 26.3898C12.3756 26.5227 12.204 26.6289 11.9877 26.6289C11.7415 26.6488 11.57 26.5426 11.57 26.3898C11.57 26.257 11.7415 26.1508 11.9579 26.1508C12.1817 26.1309 12.3756 26.2371 12.3756 26.3898ZM10.0556 26.091C10.0034 26.2238 10.1526 26.3766 10.3764 26.4164C10.5704 26.4828 10.7942 26.4164 10.8389 26.2836C10.8837 26.1508 10.7419 25.998 10.5181 25.9383C10.3242 25.8918 10.1079 25.9582 10.0556 26.091ZM13.3528 25.9781C13.1365 26.0246 12.9873 26.1508 13.0097 26.3035C13.0321 26.4363 13.226 26.5227 13.4498 26.4762C13.6661 26.4297 13.8153 26.3035 13.7929 26.1707C13.7706 26.0445 13.5692 25.9582 13.3528 25.9781ZM18.2613 0.53125C7.91472 0.53125 0 7.52383 0 16.7344C0 24.0988 5.20686 30.4008 12.6442 32.6188C13.599 32.7715 13.9347 32.2469 13.9347 31.8152C13.9347 31.4035 13.9123 29.1324 13.9123 27.7379C13.9123 27.7379 8.69053 28.734 7.59395 25.759C7.59395 25.759 6.74355 23.8266 5.52016 23.3285C5.52016 23.3285 3.8119 22.2859 5.63952 22.3059C5.63952 22.3059 7.49698 22.4387 8.51895 24.0191C10.1526 26.5824 12.8903 25.8453 13.9571 25.407C14.1286 24.3445 14.6135 23.6074 15.1506 23.1691C10.9806 22.7574 6.77339 22.2195 6.77339 15.8312C6.77339 14.0051 7.34032 13.0887 8.53387 11.9199C8.33992 11.4883 7.70585 9.70859 8.72782 7.41094C10.2869 6.9793 13.875 9.20391 13.875 9.20391C15.3669 8.83203 16.9708 8.63945 18.5597 8.63945C20.1486 8.63945 21.7524 8.83203 23.2444 9.20391C23.2444 9.20391 26.8325 6.97266 28.3915 7.41094C29.4135 9.71523 28.7794 11.4883 28.5855 11.9199C29.779 13.0953 30.5101 14.0117 30.5101 15.8312C30.5101 22.2395 26.1163 22.7508 21.9464 23.1691C22.6327 23.6938 23.2145 24.6898 23.2145 26.2504C23.2145 28.4883 23.1921 31.2574 23.1921 31.802C23.1921 32.2336 23.5353 32.7582 24.4827 32.6055C31.9423 30.4008 37 24.0988 37 16.7344C37 7.52383 28.6079 0.53125 18.2613 0.53125ZM7.25081 23.4348C7.15383 23.5012 7.17621 23.6539 7.30302 23.7801C7.42238 23.8863 7.59395 23.9328 7.69093 23.8465C7.7879 23.7801 7.76552 23.6273 7.63871 23.5012C7.51936 23.3949 7.34778 23.3484 7.25081 23.4348ZM6.44516 22.8969C6.39294 22.9832 6.46754 23.0895 6.61673 23.1559C6.73609 23.2223 6.88528 23.2023 6.9375 23.1094C6.98972 23.023 6.91512 22.9168 6.76593 22.8504C6.61673 22.8105 6.49738 22.8305 6.44516 22.8969ZM8.8621 25.2609C8.74274 25.3473 8.7875 25.5465 8.95907 25.6727C9.13065 25.8254 9.34698 25.8453 9.44395 25.7391C9.54093 25.6527 9.49617 25.4535 9.34698 25.3273C9.18286 25.1746 8.95907 25.1547 8.8621 25.2609ZM8.01169 24.2848C7.89234 24.3512 7.89234 24.5238 8.01169 24.6766C8.13105 24.8293 8.33246 24.8957 8.42944 24.8293C8.54879 24.743 8.54879 24.5703 8.42944 24.4176C8.325 24.2648 8.13105 24.1984 8.01169 24.2848Z" fill="white"/>
</svg>
