<svg width="37" height="34" viewBox="0 0 37 34" fill="none" xmlns="http://www.w3.org/2000/svg">
<g clip-path="url(#clip0_14_17)">
<path d="M18.5081 9.36328C13.2554 9.36328 9.01858 12.7699 9.01858 16.9934C9.01858 21.2168 13.2554 24.6234 18.5081 24.6234C23.7608 24.6234 27.9976 21.2168 27.9976 16.9934C27.9976 12.7699 23.7608 9.36328 18.5081 9.36328ZM18.5081 21.9539C15.1137 21.9539 12.3387 19.7293 12.3387 16.9934C12.3387 14.2574 15.1054 12.0328 18.5081 12.0328C21.9108 12.0328 24.6775 14.2574 24.6775 16.9934C24.6775 19.7293 21.9025 21.9539 18.5081 21.9539ZM30.5992 9.05117C30.5992 10.0406 29.6081 10.8309 28.3858 10.8309C27.1552 10.8309 26.1724 10.034 26.1724 9.05117C26.1724 8.06835 27.1634 7.27148 28.3858 7.27148C29.6081 7.27148 30.5992 8.06835 30.5992 9.05117ZM36.8842 10.8574C36.7438 8.47343 36.0666 6.36171 33.8945 4.62187C31.7306 2.88202 29.1043 2.33749 26.1393 2.21796C23.0835 2.07851 13.9244 2.07851 10.8686 2.21796C7.91188 2.33085 5.28554 2.87538 3.11344 4.61523C0.941346 6.35507 0.272372 8.46679 0.123711 10.8508C-0.0497261 13.3078 -0.0497261 20.6723 0.123711 23.1293C0.264113 25.5133 0.941346 27.625 3.11344 29.3648C5.28554 31.1047 7.90362 31.6492 10.8686 31.7687C13.9244 31.9082 23.0835 31.9082 26.1393 31.7687C29.1043 31.6559 31.7306 31.1113 33.8945 29.3648C36.0583 27.625 36.7355 25.5133 36.8842 23.1293C37.0576 20.6723 37.0576 13.3144 36.8842 10.8574ZM32.9364 25.7656C32.2922 27.0672 31.0451 28.0699 29.4181 28.5945C26.9817 29.3715 21.2005 29.1922 18.5081 29.1922C15.8157 29.1922 10.0262 29.3648 7.59804 28.5945C5.97929 28.0766 4.73219 27.0738 4.07974 25.7656C3.11344 23.8066 3.33643 19.1582 3.33643 16.9934C3.33643 14.8285 3.1217 10.1734 4.07974 8.22109C4.72393 6.91953 5.97103 5.91679 7.59804 5.39218C10.0344 4.61523 15.8157 4.79452 18.5081 4.79452C21.2005 4.79452 26.99 4.62187 29.4181 5.39218C31.0369 5.91015 32.284 6.91288 32.9364 8.22109C33.9027 10.1801 33.6797 14.8285 33.6797 16.9934C33.6797 19.1582 33.9027 23.8133 32.9364 25.7656Z" fill="white"/>
</g>
<defs>
<clipPath id="clip0_14_17">
<rect width="37" height="34" fill="white"/>
</clipPath>
</defs>
</svg>
