<svg width="37" height="34" viewBox="0 0 37 34" fill="none" xmlns="http://www.w3.org/2000/svg">
<path d="M34.3571 2.125H2.6346C1.18103 2.125 0 3.08789 0 4.26992V29.7301C0 30.9121 1.18103 31.875 2.6346 31.875H34.3571C35.8107 31.875 37 30.9121 37 29.7301V4.26992C37 3.08789 35.8107 2.125 34.3571 2.125ZM11.1826 27.625H5.69866V13.4273H11.1908V27.625H11.1826ZM8.44062 11.4883C6.68147 11.4883 5.26094 10.3395 5.26094 8.93164C5.26094 7.52383 6.68147 6.375 8.44062 6.375C10.1915 6.375 11.6203 7.52383 11.6203 8.93164C11.6203 10.3461 10.1998 11.4883 8.44062 11.4883ZM31.7391 27.625H26.2551V20.7188C26.2551 19.0719 26.2138 16.9535 23.4058 16.9535C20.5482 16.9535 20.1105 18.7465 20.1105 20.5992V27.625H14.6266V13.4273H19.8875V15.3664H19.9618C20.6969 14.2508 22.4891 13.0754 25.1567 13.0754C30.7067 13.0754 31.7391 16.0172 31.7391 19.8422V27.625Z" fill="white"/>
</svg>
