<svg width="141" height="157" viewBox="0 0 141 157" fill="none" xmlns="http://www.w3.org/2000/svg">
<g clip-path="url(#clip0_17_252)">
<path fill-rule="evenodd" clip-rule="evenodd" d="M15.8577 26.6229C19.1854 54.3994 15.4797 112.919 1.21443 135.878C37.894 145.888 78.6283 142.146 117.094 137.878C144.831 104.81 138.57 45.669 132.981 13.3683C131.221 13.8016 129.441 14.2171 127.647 14.6255L128.049 16.6417C128.813 16.8316 129.402 17.3512 129.543 18.0663C129.753 19.1179 128.902 20.1778 127.639 20.4226C126.376 20.6676 125.179 20.0155 124.971 18.9585C124.826 18.2414 125.191 17.5318 125.832 17.0692L125.449 15.1222C124.133 15.4104 122.804 15.6979 121.475 15.9718L121.72 17.7925C122.469 18.0137 123.037 18.5478 123.136 19.2725C123.285 20.3371 122.38 21.3683 121.109 21.563C119.838 21.7578 118.678 21.0479 118.529 19.9834C118.43 19.2519 118.831 18.5617 119.495 18.1247L119.26 16.4205C117.832 16.7067 116.402 16.9787 114.96 17.2505L115.168 19.1228C115.909 19.3596 116.451 19.9189 116.529 20.6454C116.648 21.7134 115.72 22.7121 114.442 22.8839C113.169 23.0512 112.031 22.3205 111.916 21.2482C111.838 20.5149 112.263 19.8316 112.939 19.4072L112.741 17.6518C110.978 17.9721 109.209 18.2699 107.433 18.5643L107.64 20.5661C108.378 20.8075 108.936 21.3624 109.014 22.0889C109.129 23.1615 108.188 24.173 106.915 24.3403C105.641 24.5076 104.516 23.7771 104.401 22.7048C104.322 21.9715 104.732 21.2795 105.407 20.8551L105.208 18.9355C103.539 19.2024 101.866 19.4673 100.188 19.7164L100.369 21.4503C101.11 21.6871 101.665 22.2335 101.743 22.9601C101.862 24.028 100.933 25.0397 99.6594 25.207C98.3822 25.3789 97.2481 24.6436 97.1296 23.5759C97.051 22.8426 97.4763 22.1593 98.1521 21.7348L97.9625 20.0486C96.4401 20.2708 94.9146 20.4784 93.3902 20.6865L93.5979 22.5454C94.3395 22.7822 94.8936 23.3417 94.9722 24.0685C95.0907 25.1362 94.1496 26.1477 92.8724 26.3196C91.5993 26.4871 90.4776 25.7521 90.3586 24.6841C90.2805 23.951 90.6893 23.2588 91.3692 22.8301L91.1609 20.9839C89.211 21.2364 87.2646 21.4777 85.3147 21.7107L85.496 23.4185C86.234 23.6599 86.7917 24.2017 86.8703 24.9285C86.9852 26.0008 86.0602 27.0079 84.7829 27.1798C83.5093 27.3471 82.3716 26.6164 82.2567 25.5441C82.1782 24.8108 82.5874 24.1188 83.2632 23.6944L83.0825 21.9739C81.509 22.1555 79.9294 22.3274 78.3632 22.4934L78.487 24.2223C79.2177 24.4794 79.7413 25.0484 79.7951 25.7749C79.8706 26.8521 78.911 27.8405 77.6349 27.9739C76.3552 28.1118 75.2465 27.3381 75.171 26.261C75.1172 25.528 75.559 24.8601 76.2507 24.4508L76.1269 22.7348C74.4904 22.9021 72.8627 23.061 71.2329 23.2189L71.3159 24.9519C72.0378 25.2237 72.5531 25.8013 72.5862 26.5297C72.6312 27.61 71.6298 28.5694 70.3491 28.6807C69.0684 28.792 67.9997 28.0007 67.951 26.925C67.9221 26.1859 68.3767 25.5249 69.0757 25.1326L68.9967 23.4343C67.2119 23.5998 65.4301 23.7604 63.665 23.9104L63.6727 25.7593C64.3826 26.0508 64.8731 26.6476 64.8772 27.3799C64.8814 28.4642 63.8454 29.405 62.5633 29.4829C61.2848 29.5563 60.2388 28.7382 60.2315 27.6587C60.2273 26.9199 60.7146 26.257 61.4295 25.8798L61.4123 24.0909C59.8623 24.22 58.3181 24.3458 56.7897 24.4605L56.8069 26.5687C57.5168 26.8602 58.0036 27.4616 58.0077 28.1939C58.0156 29.2736 56.992 30.2145 55.7135 30.2879C54.4313 30.3659 53.3853 29.5478 53.3779 28.4682C53.3739 27.7295 53.8613 27.0666 54.5759 26.6892L54.5622 24.6155C52.9511 24.7312 51.3399 24.8404 49.7555 24.9444L49.7639 27.1261C50.4703 27.4222 50.9604 28.0189 50.9648 28.7513C50.9722 29.8308 49.9488 30.7718 48.6669 30.8499C47.3885 30.9234 46.3422 30.1051 46.3348 29.0256C46.3308 28.2868 46.8183 27.624 47.5328 27.2465L47.5244 25.0909C45.8497 25.1984 44.1842 25.3109 42.5461 25.4055L42.5654 27.704C43.2718 28.0001 43.762 28.5967 43.7664 29.3292C43.7738 30.4087 42.7504 31.3497 41.4684 31.4278C40.1901 31.5013 39.1438 30.683 39.1366 29.6036C39.1325 28.8648 39.6197 28.2018 40.3341 27.8243L40.3277 25.5263C38.6485 25.6184 36.9812 25.7234 35.3454 25.8063L35.3559 28.152C36.0663 28.4438 36.5526 29.0449 36.5572 29.7775C36.5645 30.8569 35.541 31.7979 34.2625 31.8713C32.9808 31.9495 31.9183 31.1355 31.9146 30.0515C31.9105 29.3127 32.3977 28.6497 33.109 28.277L33.0986 25.9182C31.5141 25.9962 29.928 26.0602 28.3952 26.1269L28.4069 28.0235C29.1132 28.3196 29.6031 28.9161 29.6078 29.6487C29.6151 30.7282 28.5915 31.6691 27.3099 31.7473C26.0313 31.8207 24.9848 31.0023 24.9775 29.9229C24.9734 29.184 25.4612 28.5214 26.1756 28.1439L26.1603 26.2257C24.8064 26.2845 23.4488 26.3414 22.1414 26.3927L22.1512 28.4187C22.8611 28.7102 23.3479 29.3116 23.352 30.0439C23.3593 31.1234 22.3363 32.0646 21.0578 32.1379C19.7756 32.2159 18.7296 31.3978 18.7223 30.3183C18.7182 29.5795 19.2055 28.9166 19.9204 28.5393L19.9066 26.4785C18.5407 26.5309 17.1661 26.5786 15.8587 26.6234L15.8577 26.6229Z" fill="url(#paint0_linear_17_252)" stroke="#606D85" stroke-width="5.38367"/>
<path d="M22.7393 43.8672C35.4159 45.005 47.1535 44.0996 64.4664 42.6597" stroke="#5B70BC" stroke-width="6.15226" stroke-linecap="round"/>
<path d="M15.5256 128.165C37.6545 130.714 50.6014 131.571 71.3075 130.006" stroke="#5B70BC" stroke-width="6.15226" stroke-linecap="round"/>
<path d="M23.9557 51.4373C48.8451 53.7462 108.251 48.0319 127.13 44.499" stroke="#5B70BC" stroke-width="6.15226" stroke-linecap="round"/>
<path d="M24.2758 58.9958C49.1301 61.4547 105.366 56.3444 124.305 52.8935" stroke="#5B70BC" stroke-width="6.15226" stroke-linecap="round"/>
<path d="M25.4897 66.4861C50.3115 69.0884 109.761 63.9837 128.713 60.6295" stroke="#5B70BC" stroke-width="6.15226" stroke-linecap="round"/>
<path d="M25.8097 73.9798C50.6111 76.7746 80.7197 74.099 102.608 71.8738" stroke="#5B70BC" stroke-width="6.15226" stroke-linecap="round"/>
<path d="M25.2313 81.6951C49.982 84.5988 109.476 80.1113 128.503 76.9393" stroke="#5B70BC" stroke-width="6.15226" stroke-linecap="round"/>
<path d="M25.5513 89.2582C50.2665 92.3122 109.829 88.1365 128.87 85.0561" stroke="#5B70BC" stroke-width="6.15226" stroke-linecap="round"/>
<path d="M24.9729 96.9008C49.6527 100.106 109.239 96.246 128.295 93.2616" stroke="#5B70BC" stroke-width="6.15226" stroke-linecap="round"/>
<path d="M23.4915 104.624C48.1406 107.98 107.751 104.442 126.822 101.555" stroke="#5B70BC" stroke-width="6.15226" stroke-linecap="round"/>
<path d="M21.5212 111.628C40.9737 113.986 48.1425 114.379 66.9915 112.956" stroke="#5B70BC" stroke-width="6.15226" stroke-linecap="round"/>
<path d="M18.0807 120.285C42.6549 123.947 102.304 121.059 121.496 118.357" stroke="#5B70BC" stroke-width="6.15226" stroke-linecap="round"/>
</g>
<defs>
<linearGradient id="paint0_linear_17_252" x1="54.6507" y1="45.2288" x2="37.5333" y2="145.774" gradientUnits="userSpaceOnUse">
<stop stop-color="#FBFBF9"/>
<stop offset="1" stop-color="#E9EDF4"/>
</linearGradient>
<clipPath id="clip0_17_252">
<rect width="141" height="157" fill="white"/>
</clipPath>
</defs>
</svg>
