<svg width="194" height="151" viewBox="0 0 194 151" fill="none" xmlns="http://www.w3.org/2000/svg">
<path fill-rule="evenodd" clip-rule="evenodd" d="M65.6373 41.2734C65.6373 29.3044 80.9274 19.3785 97.0006 19.3785C113.074 19.3785 128.364 29.3044 128.364 41.2734C128.364 52.3327 121.157 57.5246 111.466 64.2137L111.066 64.4901C101.46 71.1177 89.564 79.3248 89.564 95.6333C89.564 98.8302 92.8934 101.422 97.0006 101.422C101.108 101.422 104.437 98.8302 104.437 95.6333C104.437 84.7127 111.608 79.5894 121.335 72.8751L121.604 72.6893C131.268 66.0201 143.237 57.76 143.237 41.2734C143.237 21.4175 119.228 7.80191 97.0006 7.80191C74.7728 7.80191 50.764 21.4175 50.764 41.2734C50.764 44.4703 54.0935 47.0618 58.2006 47.0618C62.3078 47.0618 65.6373 44.4703 65.6373 41.2734ZM97.0006 134.465C103.251 134.465 108.317 130.521 108.317 125.657C108.317 120.792 103.251 116.849 97.0006 116.849C90.7506 116.849 85.684 120.792 85.684 125.657C85.684 130.521 90.7506 134.465 97.0006 134.465Z" fill="black"/>
</svg>
