<svg width="130" height="133" viewBox="0 0 130 133" fill="none" xmlns="http://www.w3.org/2000/svg">
<g clip-path="url(#clip0_16_329)">
<path d="M69.0652 68.9354L2.19032 113.73C2.19032 113.73 -1.25093 112.448 2.03157 108.496C13.9538 90.9385 51.3677 65.4492 51.3677 65.4492C51.3677 65.4492 57.2065 62.1297 59.7167 62.3979C62.2366 62.6687 67.8657 60.8031 67.8657 60.8031C67.8657 60.8031 66.8568 67.8842 69.0652 68.9354Z" fill="#999999"/>
<path d="M2.19031 114.282C2.12686 114.282 2.06251 114.271 2.0014 114.248C1.9417 114.226 0.534105 113.687 0.156794 112.25C-0.155387 111.062 0.334702 109.68 1.61295 108.141C13.4247 90.7411 50.687 65.2459 51.0619 64.9905C51.3376 64.833 57.1723 61.5779 59.774 61.8479C62.185 62.1185 67.6448 60.2956 67.6955 60.2778C67.8751 60.2184 68.0722 60.2554 68.2167 60.3798C68.3613 60.5026 68.4344 60.6922 68.4073 60.8818C68.0133 63.6541 68.0293 67.8312 69.2987 68.435C69.4766 68.5203 69.5958 68.6961 69.6101 68.8953C69.6244 69.0944 69.5322 69.2855 69.367 69.3964L2.49226 114.191C2.40162 114.251 2.29597 114.282 2.19031 114.282ZM59.4101 62.9353C56.9333 62.9353 51.6887 65.9012 51.6355 65.9308C51.3003 66.1615 14.2087 91.5392 2.4819 108.81C1.43258 110.077 1.00438 111.151 1.21091 111.957C1.36577 112.56 1.85353 112.924 2.14823 113.094L68.1435 68.8888C66.8091 67.2867 67.0189 63.4639 67.219 61.5861C65.5316 62.0986 61.6773 63.173 59.6589 62.9473C59.5801 62.9394 59.4967 62.9353 59.4101 62.9353Z" fill="#1A1919"/>
<path d="M60.373 5.37563C50.2318 16.029 48.5048 30.9262 50.9737 38.9148C53.4093 46.7957 52.7755 55.2872 52.1765 58.7285C58.0613 59.9614 61.3247 56.1691 61.3247 56.1691C60.8511 57.858 61.3992 58.3399 61.3992 58.3399C65.4634 53.7837 65.8225 55.0422 67.0489 53.4898C68.282 51.9254 69.038 49.1048 68.6012 47.5444C69.753 43.5584 80.3153 27.4792 83.5025 20.8959C96.265 4.02639 70.9575 -5.73956 60.373 5.37563ZM79.7386 13.3378C73.5742 22.6114 69.1048 30.8104 66.6708 33.9587C64.2701 37.0676 52.9565 39.5596 54.6089 28.3594C56.3089 16.8289 62.2366 9.48606 69.2591 7.63886C76.4022 5.76115 81.5323 10.9622 79.7386 13.3378Z" fill="#0067A5"/>
<path d="M54.4889 59.5277C53.6985 59.5277 52.8827 59.4409 52.0653 59.27C51.7761 59.209 51.5871 58.9269 51.6378 58.633C52.2877 54.8985 52.7691 46.5789 50.4519 39.0795C47.7286 30.2676 50.1421 15.3263 59.9789 4.9926C62.9928 1.82665 67.3413 0.0839081 72.2204 0.0839081C78.5946 0.0839081 84.3555 3.11162 86.5576 7.61883C87.9335 10.4312 88.5943 15.0757 83.9361 21.2317C82.5871 24.0434 79.7226 28.8389 76.9518 33.4769C73.4868 39.2786 69.9057 45.2739 69.1684 47.5595C69.5561 49.2912 68.7919 52.1662 67.4763 53.8344C66.9394 54.5145 66.5184 54.741 66.0322 55.0037C65.2838 55.4068 64.259 55.9586 61.8053 58.7101C61.6051 58.935 61.2666 58.9566 61.0402 58.7567C60.9497 58.6771 60.6304 58.3422 60.5906 57.5521C59.4149 58.4209 57.355 59.5277 54.4889 59.5277ZM52.8032 58.2829C53.3728 58.3752 53.9383 58.4226 54.4889 58.4226C58.6134 58.4226 60.8893 55.8325 60.9124 55.8061C61.0799 55.61 61.3588 55.5587 61.5852 55.6831C61.8099 55.8061 61.9204 56.071 61.8505 56.32C61.7473 56.6878 61.7004 56.9809 61.6845 57.2115C63.7919 54.9579 64.8168 54.4054 65.5174 54.028C65.9591 53.7903 66.2261 53.6464 66.6215 53.1445C67.7512 51.7109 68.4582 49.0622 68.0753 47.6945C68.0467 47.5949 68.0484 47.4888 68.077 47.3894C68.7442 45.0795 72.276 39.1661 76.0161 32.9051C78.7742 28.2879 81.626 23.5134 83.0115 20.6526C86.4846 16.0443 87.352 11.7388 85.5773 8.10868C83.5548 3.97023 78.188 1.18901 72.2204 1.18901C67.6416 1.18901 63.5727 2.81211 60.767 5.75879C51.2215 15.7865 48.8663 30.2411 51.4957 38.7501C53.7692 46.1075 53.4204 54.2304 52.8032 58.2829ZM60.1401 37.1431C58.1097 37.1431 56.4614 36.4684 55.373 35.1916C54.0576 33.6495 53.619 31.3228 54.0678 28.2774C55.6963 17.2314 61.4645 9.11822 69.1208 7.10398C70.1772 6.82607 71.2401 6.68547 72.2808 6.68547C76.4005 6.68547 79.3144 8.80418 80.2771 10.7726C80.7982 11.8375 80.7602 12.8952 80.174 13.6735C77.1123 18.281 74.4225 22.6998 72.2617 26.2511C70.0677 29.8556 68.336 32.7027 67.1014 34.2992C65.8701 35.8943 62.8124 37.1431 60.1401 37.1431ZM72.2808 7.79058C71.3339 7.79058 70.3631 7.91991 69.3972 8.17374C62.1713 10.074 56.7124 17.8401 55.1499 28.4405C54.7494 31.1534 55.103 33.1821 56.2016 34.4703C57.3058 35.7657 58.9534 36.038 60.1401 36.038C62.7537 36.038 65.341 34.782 66.2403 33.6182C67.4366 32.0705 69.1542 29.2468 71.3308 25.6721C73.4962 22.1127 76.1924 17.6827 79.2841 13.0294C79.7497 12.4118 79.4907 11.6584 79.2969 11.2626C78.4532 9.53738 75.7713 7.79058 72.2808 7.79058Z" fill="#1A1919"/>
<path d="M61.5534 55.541C59.0399 58.1905 53.8987 59.5662 52.4768 58.3857C51.7794 62.8165 51.1628 65.2025 49.072 69.6565C47.0082 74.045 21.0397 131.903 21.0397 131.903C21.0397 131.903 23.3894 132.975 24.5476 131.852C40.2177 120.374 61.8092 71.0083 61.8092 71.0083C61.8092 71.0083 63.487 68.885 62.5449 65.6282C61.6027 62.3507 60.9116 59.0081 61.5534 55.541Z" fill="#ACACAC"/>
<path d="M23.0749 132.918C23.0741 132.918 23.0741 132.918 23.0741 132.918C21.9468 132.918 20.8608 132.428 20.8148 132.407C20.6822 132.347 20.5788 132.236 20.5281 132.098C20.4764 131.961 20.482 131.808 20.5415 131.675C20.8013 131.096 46.5355 73.7615 48.5779 69.4189C50.6321 65.0443 51.2438 62.7016 51.9365 58.2989C51.9675 58.1029 52.0994 57.939 52.2829 57.8685C52.4679 57.7994 52.6729 57.833 52.8239 57.9584C52.9589 58.0709 53.3061 58.2595 54.1076 58.2587C56.0841 58.2587 59.3419 57.0734 61.1585 55.1587C61.3262 54.9812 61.5892 54.9378 61.8037 55.0494C62.0182 55.1611 62.1357 55.4021 62.0912 55.643C61.4549 59.0771 62.1858 62.3979 63.0699 65.474C64 68.6897 62.5743 70.8878 62.2835 71.2902C61.0855 74.0241 40.352 120.959 24.8686 132.299C24.4698 132.694 23.847 132.918 23.0749 132.918ZM21.7808 131.589C22.128 131.698 22.6046 131.812 23.0741 131.812H23.0749C23.5554 131.812 23.9232 131.691 24.1695 131.453C39.5996 120.144 61.0935 71.2773 61.3087 70.7851C61.3278 70.7424 61.3525 70.7015 61.3802 70.6654C61.4414 70.5867 62.865 68.7042 62.0197 65.7832C61.223 63.0116 60.5478 60.0424 60.8154 56.9248C58.2544 58.8515 54.6374 59.7365 52.8986 59.209C52.2305 63.2662 51.5592 65.6466 49.5661 69.8936C47.6341 74.0008 24.43 125.688 21.7808 131.589Z" fill="#1A1919"/>
<path d="M57.8929 66.588C59.3227 67.4979 59.4705 69.4768 58.2344 71.0034C57.0015 72.5247 54.8616 73.0266 53.4396 72.1343C52.0144 71.2349 51.8428 69.2664 53.0678 67.7292C54.3006 66.1879 56.4614 65.6746 57.8929 66.588Z" fill="#ACACAC"/>
<path d="M55.0497 73.1287C54.3546 73.1287 53.6976 72.9471 53.1512 72.6041C52.3949 72.1262 51.8968 71.3744 51.7491 70.4862C51.575 69.4446 51.9 68.313 52.642 67.3822C53.5437 66.2555 54.8988 65.5823 56.2668 65.5823C56.9698 65.5823 57.6331 65.7687 58.1844 66.1206C58.9383 66.6 59.4324 67.354 59.5753 68.2439C59.7446 69.2912 59.4101 70.4244 58.6578 71.3536C57.757 72.4651 56.4082 73.1287 55.0497 73.1287ZM56.2668 66.6884C55.2412 66.6884 54.1783 67.22 53.4928 68.0769C52.9478 68.7605 52.7055 69.5714 52.827 70.3024C52.924 70.883 53.2362 71.3545 53.7295 71.6653C54.8726 72.3831 56.7959 71.9053 57.8118 70.6532C58.3647 69.969 58.615 69.1562 58.4966 68.4214C58.4029 67.8407 58.093 67.3685 57.6013 67.0561C57.2249 66.8152 56.7633 66.6884 56.2668 66.6884Z" fill="#1A1919"/>
<path d="M57.0301 66.0386C58.4601 66.9501 58.6125 68.9322 57.3782 70.4598C56.1483 71.9842 54.0036 72.4876 52.5801 71.5921C51.1501 70.6926 50.9816 68.7194 52.2019 67.1831C53.4315 65.6386 55.5987 65.1222 57.0301 66.0386Z" fill="#ACACAC"/>
<path d="M54.1934 72.588C53.4967 72.588 52.839 72.4057 52.2908 72.0611C51.5354 71.5858 51.0365 70.8348 50.8871 69.9465C50.7109 68.9027 51.0349 67.7693 51.7753 66.8368C52.6752 65.7069 54.0313 65.0322 55.4033 65.0322C56.1079 65.0322 56.7711 65.2186 57.3225 65.5711C58.0772 66.0523 58.572 66.8088 58.7158 67.7011C58.8843 68.7484 58.5514 69.8816 57.8016 70.8099C56.9031 71.9232 55.5541 72.588 54.1934 72.588ZM55.4033 66.1375C54.3753 66.1375 53.3116 66.6707 52.6277 67.53C52.0835 68.2151 51.8412 69.0286 51.9651 69.7602C52.0628 70.3418 52.3751 70.8123 52.8691 71.1231C54.0178 71.8459 55.9418 71.3649 56.9547 70.1104C57.5067 69.4269 57.7545 68.6141 57.6362 67.8786C57.5426 67.2954 57.232 66.8209 56.7386 66.506C56.3613 66.265 55.8997 66.1375 55.4033 66.1375Z" fill="#1A1919"/>
<path d="M54.5532 66.9139C52.4783 68.7289 54.0353 70.5456 54.9313 70.2036C53.0821 72.5078 50.621 68.3909 54.5532 66.9139Z" fill="white"/>
<path d="M76.9803 1.30303C84.3666 3.95727 88.9947 11.1814 82.0312 20.4181C78.8599 27.0004 68.3485 43.0822 67.2031 47.0681C67.6416 48.6277 66.8933 51.4466 65.6636 53.0119C64.5799 54.3916 64.1685 53.5605 61.2309 56.5754C60.9544 57.927 61.3992 58.3399 61.3992 58.3399C65.4634 53.7837 65.8225 55.0422 67.0489 53.4898C68.282 51.9254 69.038 49.1048 68.6011 47.5444C69.753 43.5584 80.3153 27.4792 83.5025 20.8959C90.9617 11.0361 85.2119 3.47462 76.9803 1.30303Z" fill="#005E9E"/>
<path d="M54.6089 28.3594C56.3089 16.829 62.2366 9.48607 69.2591 7.63886C71.2895 7.10555 73.1514 7.15857 74.7499 7.54565C72.8861 6.76834 70.4824 6.46555 67.7972 7.17231C60.7908 9.02109 54.89 16.3655 53.2108 27.8919C52.4322 33.2175 54.5327 35.4156 57.2097 35.9697C55.2539 34.9819 53.9639 32.7163 54.6089 28.3594Z" fill="#005E9E"/>
<path d="M70.862 10.8481C74.8196 9.82498 78.1592 10.9726 80.0467 12.5981C80.5329 10.0425 75.7237 5.93944 69.259 7.63886C62.2366 9.48606 56.3089 16.8289 54.6089 28.3594C53.9733 32.6576 55.2173 34.9217 57.1192 35.9312C56.8157 34.7603 56.7315 33.2889 57.0222 31.3879C58.754 19.9169 63.8412 12.6648 70.862 10.8481Z" fill="#005E9E"/>
<path d="M57.1192 36.4838C57.0326 36.4838 56.9452 36.4628 56.8649 36.4203C55.1728 35.5224 53.314 33.3805 54.0678 28.2774C55.6963 17.2313 61.4645 9.11822 69.1208 7.10398C70.1772 6.82606 71.2386 6.68547 72.2777 6.68547C75.8253 6.68547 78.3961 8.28291 79.6162 9.77837C80.4138 10.7534 80.7569 11.7918 80.5837 12.7025C80.5472 12.896 80.4121 13.0543 80.2279 13.1193C80.0421 13.186 79.8402 13.1467 79.6925 13.0189C77.5969 11.2151 74.2383 10.5461 70.9971 11.3838C64.1176 13.1635 59.2211 20.4855 57.5624 31.4715C57.3082 33.1372 57.3367 34.5899 57.6483 35.7915C57.703 36.0027 57.6291 36.2276 57.4591 36.3641C57.3605 36.4436 57.2399 36.4838 57.1192 36.4838ZM72.2777 7.79149C71.3323 7.79149 70.3616 7.91991 69.3972 8.17374C62.1713 10.074 56.7124 17.8401 55.1499 28.4405C54.7233 31.3253 55.1252 33.4142 56.3454 34.6742C56.2461 33.66 56.2922 32.5461 56.482 31.3036C58.2098 19.8591 63.4019 12.2077 70.727 10.3125C73.8076 9.51971 77.001 9.95431 79.3478 11.4071C79.2189 11.1043 79.0251 10.7903 78.7742 10.4826C77.7113 9.18171 75.4457 7.79149 72.2777 7.79149Z" fill="#1A1919"/>
<path d="M68.6791 49.8766C68.6568 49.8766 68.6345 49.8758 68.6123 49.8725C68.312 49.8356 68.0991 49.5594 68.1358 49.2566C68.2565 48.2743 67.9593 47.4591 67.6733 46.6714C67.2953 45.6321 66.9044 44.5583 67.5891 43.3215C67.737 43.0533 68.0705 42.9616 68.3327 43.1088C68.5963 43.2581 68.6902 43.5953 68.5423 43.8612C68.1246 44.6169 68.3185 45.245 68.6997 46.2899C69.0159 47.1588 69.3732 48.1443 69.2224 49.3916C69.1874 49.6718 68.9523 49.8766 68.6791 49.8766Z" fill="#1A1919"/>
<path d="M66.431 54.305C66.4103 54.305 66.388 54.3042 66.3658 54.3009C65.6461 54.2142 65.2854 53.8351 65.1075 53.5324C64.6452 52.7413 64.8009 51.4853 65.6096 49.4598C66.2609 47.8238 66.7742 47.093 67.4383 46.8528C67.864 46.6986 68.3327 46.7653 68.8633 47.0592C69.1288 47.2053 69.2256 47.5419 69.0811 47.8093C68.935 48.08 68.6012 48.1756 68.3391 48.0294C67.9768 47.8287 67.8513 47.8769 67.8069 47.8936C67.5017 48.0037 67.103 48.6703 66.6232 49.8733C65.7812 51.9815 65.902 52.7188 66.0496 52.9701C66.1021 53.0601 66.2006 53.1678 66.4962 53.2039C66.7963 53.24 67.0093 53.5155 66.9743 53.8183C66.9409 54.0994 66.7042 54.305 66.431 54.305Z" fill="#1A1919"/>
<path d="M78.7742 51.5937C75.2598 52.2507 73.76 51.9349 73.76 51.9349L70.3791 54.9323L70.8319 59.5446" fill="#0067A5"/>
<path d="M70.8319 60.0972C70.5539 60.0972 70.3155 59.8843 70.2886 59.5991L69.8358 54.9869C69.8183 54.8094 69.8865 54.6342 70.0185 54.5163L73.3994 51.5189C73.5265 51.4057 73.7028 51.3544 73.8712 51.3936C73.8808 51.3944 75.3472 51.6723 78.6741 51.05C78.9966 50.9945 79.2587 51.1945 79.3111 51.4933C79.3668 51.7937 79.1699 52.0819 78.8743 52.1373C76.1081 52.6537 74.5338 52.5847 73.9331 52.5172L70.951 55.1603L71.3752 59.4899C71.4055 59.7936 71.1861 60.0642 70.8859 60.0947C70.8668 60.0964 70.8494 60.0972 70.8319 60.0972Z" fill="#1A1919"/>
<path d="M118.695 22.7118C106.918 20.0013 102.807 25.7308 92.2248 36.7753C83.1051 46.8632 67.7783 59.5102 67.7783 59.5102C66.4739 65.0893 67.103 69.6929 68.8013 70.4027C72.767 68.4544 77.0137 66.2996 80.3518 65.7317C93.0779 65.0291 109.946 61.7387 121.569 50.756C133.746 39.2584 131.056 25.5525 118.695 22.7118ZM102.6 54.3026C93.1081 57.9375 88.0701 53.6184 91.2143 48.3611L109.771 30.2242C113.235 27.7466 116.792 27.4984 121.673 30.8675C130.019 39.0079 112.342 50.5705 102.6 54.3026Z" fill="#0067A5"/>
<path d="M68.8013 70.9552C68.73 70.9552 68.66 70.9416 68.5917 70.9135C66.4929 70.0358 65.9145 65.0789 67.246 59.3831C67.273 59.2643 67.3397 59.1591 67.4318 59.0818C67.586 58.9558 82.8334 46.3445 91.8211 36.4026C92.7221 35.4622 93.564 34.5723 94.3712 33.721C101.594 26.0954 105.955 21.4927 113.409 21.4927C115.059 21.4927 116.828 21.7151 118.816 22.1729C124.348 23.4443 128.258 26.933 129.544 31.7446C131.178 37.8635 128.338 45.1213 121.943 51.16C110.024 62.4214 92.7633 65.6 80.3819 66.2835C77.3697 66.7999 73.4772 68.7162 69.7132 70.5691L69.0397 70.8999C68.965 70.9368 68.884 70.9552 68.8013 70.9552ZM68.2691 59.8185C67.0363 65.237 67.7735 68.9732 68.8188 69.7788L69.2335 69.5747C73.0688 67.6873 77.0329 65.7358 80.2612 65.1865C92.5218 64.5062 109.517 61.3868 121.196 50.352C127.291 44.5977 130.015 37.7495 128.489 32.0328C127.311 27.6293 123.698 24.428 118.575 23.2507C116.666 22.8113 114.976 22.5986 113.409 22.5986C106.421 22.5986 102.421 26.8206 95.1607 34.4856C94.3537 35.3385 93.5084 36.2299 92.6171 37.16C84.0569 46.6295 69.8563 58.4989 68.2691 59.8185ZM96.211 56.2011C93.3988 56.2011 91.2333 55.2101 90.2689 53.4818C89.411 51.9438 89.581 50.0244 90.7455 48.0752C90.7709 48.0342 90.7995 47.9965 90.8346 47.9635L109.391 29.8267C113.525 26.8526 117.221 27.1266 121.981 30.4113C124.005 32.3742 124.742 34.5779 124.246 37.021C122.789 44.1865 110.824 51.743 102.793 54.8198C100.399 55.7362 98.1841 56.2011 96.211 56.2011ZM91.6463 48.708C90.7264 50.2782 90.574 51.7784 91.2223 52.9388C91.9864 54.309 93.8039 55.0952 96.211 55.0952C98.0523 55.0952 100.137 54.6544 102.406 53.7854C109.979 50.8844 121.817 43.479 123.176 36.7986C123.597 34.7226 122.982 32.9123 121.293 31.2651C117.062 28.3617 113.716 28.0807 110.087 30.6755L91.6463 48.708Z" fill="#1A1919"/>
<path d="M91.9276 54.5017C90.0942 53.1894 89.6954 50.8941 91.2143 48.3611L109.771 30.2242C112.046 28.5955 114.374 27.9587 117.086 28.6557C113.225 26.6528 110.206 27.1257 107.261 29.2444L88.8135 47.395C86.8006 50.7938 88.194 53.7734 91.9276 54.5017Z" fill="#005E9E"/>
<path d="M119.741 23.0226C128.852 27.5378 129.847 39.5212 119.075 49.7633C107.52 60.7565 90.7154 64.0621 78.0353 64.773C75.0199 65.291 71.2672 67.1147 67.6511 68.9066C67.9387 69.6621 68.3216 70.2011 68.8013 70.4027C72.767 68.4544 77.0137 66.2996 80.3518 65.7317C93.0779 65.0291 109.946 61.7387 121.569 50.756C133.369 39.6095 131.177 26.4118 119.741 23.0226Z" fill="#005E9E"/>
<path d="M68.8013 70.9552C68.73 70.9552 68.66 70.9416 68.5917 70.9135C66.4929 70.0358 65.9145 65.0789 67.246 59.3831C67.273 59.2643 67.3397 59.1591 67.4318 59.0818C67.586 58.9558 82.8334 46.3445 91.8211 36.4026C92.7221 35.4622 93.564 34.5723 94.3712 33.721C101.594 26.0954 105.955 21.4927 113.409 21.4927C115.059 21.4927 116.828 21.7151 118.816 22.1729C124.348 23.4443 128.258 26.933 129.544 31.7446C131.178 37.8635 128.338 45.1213 121.943 51.16C110.024 62.4214 92.7633 65.6 80.3819 66.2835C77.3697 66.7999 73.4772 68.7162 69.7132 70.5691L69.0397 70.8999C68.965 70.9368 68.884 70.9552 68.8013 70.9552ZM68.2691 59.8185C67.0363 65.237 67.7735 68.9732 68.8188 69.7788L69.2335 69.5747C73.0688 67.6873 77.0329 65.7358 80.2612 65.1865C92.5218 64.5062 109.517 61.3868 121.196 50.352C127.291 44.5977 130.015 37.7495 128.489 32.0328C127.311 27.6293 123.698 24.428 118.575 23.2507C116.666 22.8113 114.976 22.5986 113.409 22.5986C106.421 22.5986 102.421 26.8206 95.1607 34.4856C94.3537 35.3385 93.5084 36.2299 92.6171 37.16C84.0569 46.6295 69.8563 58.4989 68.2691 59.8185ZM96.211 56.2011C93.3988 56.2011 91.2333 55.2101 90.2689 53.4818C89.411 51.9438 89.581 50.0244 90.7455 48.0752C90.7709 48.0342 90.7995 47.9965 90.8346 47.9635L109.391 29.8267C113.525 26.8526 117.221 27.1266 121.981 30.4113C124.005 32.3742 124.742 34.5779 124.246 37.021C122.789 44.1865 110.824 51.743 102.793 54.8198C100.399 55.7362 98.1841 56.2011 96.211 56.2011ZM91.6463 48.708C90.7264 50.2782 90.574 51.7784 91.2223 52.9388C91.9864 54.309 93.8039 55.0952 96.211 55.0952C98.0523 55.0952 100.137 54.6544 102.406 53.7854C109.979 50.8844 121.817 43.479 123.176 36.7986C123.597 34.7226 122.982 32.9123 121.293 31.2651C117.062 28.3617 113.716 28.0807 110.087 30.6755L91.6463 48.708Z" fill="#1A1919"/>
<path d="M110.348 33.2986C113.807 30.8467 117.354 30.6098 122.227 33.9692C122.931 34.6558 123.432 35.3738 123.783 36.1062C123.941 34.2735 123.336 32.493 121.673 30.8675C116.792 27.4984 113.235 27.7466 109.771 30.2242L91.2143 48.3611C90.0163 50.3656 90.0084 52.2249 90.96 53.5613C91.0762 52.8369 91.3415 52.0707 91.818 51.2765L110.348 33.2986Z" fill="#005E9E"/>
<path d="M90.96 54.1138C90.7869 54.1138 90.62 54.0303 90.5168 53.8842C89.3968 52.3117 89.4794 50.1938 90.7456 48.0752C90.771 48.0342 90.7996 47.9965 90.8347 47.9635L109.392 29.8267C113.525 26.8526 117.221 27.1266 121.981 30.4113C123.746 32.1243 124.51 34.0366 124.328 36.1544C124.305 36.4026 124.124 36.605 123.881 36.65C123.641 36.6966 123.398 36.5713 123.29 36.3472C122.944 35.6236 122.472 34.9755 121.847 34.3667C117.623 31.4722 114.283 31.1806 110.662 33.7515L92.2485 51.6242C91.8609 52.2859 91.6099 52.967 91.5002 53.6497C91.4637 53.8705 91.3017 54.048 91.0856 54.0994C91.0443 54.109 91.0013 54.1138 90.96 54.1138ZM91.6464 48.7072C90.968 49.8661 90.7058 50.9728 90.8664 51.9374C91.0013 51.6177 91.1636 51.3013 91.3509 50.9897C91.3747 50.9488 91.405 50.911 91.4399 50.8772L109.97 32.8994C114.102 29.9535 117.785 30.2379 122.536 33.5122C122.717 33.6864 122.885 33.8608 123.042 34.0374C122.751 33.0463 122.167 32.1187 121.293 31.2651C117.062 28.3617 113.716 28.0807 110.087 30.6755L91.6464 48.7072Z" fill="#1A1919"/>
<path d="M54.4889 59.5277C53.6985 59.5277 52.8827 59.4409 52.0653 59.27C51.7761 59.209 51.5871 58.9269 51.6378 58.633C52.2877 54.8985 52.7691 46.5789 50.4519 39.0795C47.7286 30.2676 50.1421 15.3263 59.9789 4.9926C62.9928 1.82665 67.3413 0.0839081 72.2204 0.0839081C78.5946 0.0839081 84.3555 3.11162 86.5576 7.61883C87.9335 10.4312 88.5943 15.0757 83.9361 21.2317C82.5871 24.0434 79.7226 28.8389 76.9518 33.4769C73.4868 39.2786 69.9057 45.2739 69.1684 47.5595C69.5561 49.2912 68.7919 52.1662 67.4763 53.8344C66.9394 54.5145 66.5184 54.741 66.0322 55.0037C65.2838 55.4068 64.259 55.9586 61.8053 58.7101C61.6051 58.935 61.2666 58.9566 61.0402 58.7567C60.9497 58.6771 60.6304 58.3422 60.5906 57.5521C59.4149 58.4209 57.355 59.5277 54.4889 59.5277ZM52.8032 58.2829C53.3728 58.3752 53.9383 58.4226 54.4889 58.4226C58.6134 58.4226 60.8893 55.8325 60.9124 55.8061C61.0799 55.61 61.3588 55.5587 61.5852 55.6831C61.8099 55.8061 61.9204 56.071 61.8505 56.32C61.7473 56.6878 61.7004 56.9809 61.6845 57.2115C63.7919 54.9579 64.8168 54.4054 65.5174 54.028C65.9591 53.7903 66.2261 53.6464 66.6215 53.1445C67.7512 51.7109 68.4582 49.0622 68.0753 47.6945C68.0467 47.5949 68.0484 47.4888 68.077 47.3894C68.7442 45.0795 72.276 39.1661 76.0161 32.9051C78.7742 28.2879 81.626 23.5134 83.0115 20.6526C86.4846 16.0443 87.352 11.7388 85.5773 8.10868C83.5548 3.97023 78.188 1.18901 72.2204 1.18901C67.6416 1.18901 63.5727 2.81211 60.767 5.75879C51.2215 15.7865 48.8663 30.2411 51.4957 38.7501C53.7692 46.1075 53.4204 54.2304 52.8032 58.2829ZM60.1401 37.1431C58.1097 37.1431 56.4614 36.4684 55.373 35.1916C54.0576 33.6495 53.619 31.3228 54.0678 28.2774C55.6963 17.2314 61.4645 9.11822 69.1208 7.10398C70.1772 6.82607 71.2401 6.68547 72.2808 6.68547C76.4005 6.68547 79.3144 8.80418 80.2771 10.7726C80.7982 11.8375 80.7602 12.8952 80.174 13.6735C77.1123 18.281 74.4225 22.6998 72.2617 26.2511C70.0677 29.8556 68.336 32.7027 67.1014 34.2992C65.8701 35.8943 62.8124 37.1431 60.1401 37.1431ZM72.2808 7.79058C71.3339 7.79058 70.3631 7.91991 69.3972 8.17374C62.1713 10.074 56.7124 17.8401 55.1499 28.4405C54.7494 31.1534 55.103 33.1821 56.2016 34.4703C57.3058 35.7657 58.9534 36.038 60.1401 36.038C62.7537 36.038 65.341 34.782 66.2403 33.6182C67.4366 32.0705 69.1542 29.2468 71.3308 25.6721C73.4962 22.1127 76.1924 17.6827 79.2841 13.0294C79.7497 12.4118 79.4907 11.6584 79.2969 11.2626C78.4532 9.53738 75.7713 7.79058 72.2808 7.79058Z" fill="#1A1919"/>
<path d="M124.367 29.3616C127.478 34.0776 126.611 43.1625 108.47 54.6913C123.158 50.1504 131.795 36.3488 124.367 29.3616Z" fill="white"/>
<path d="M74.6037 4.20717C82.2043 6.47747 87.56 9.97277 75.6395 27.9643C92.3979 11.195 82.7253 2.98399 74.6037 4.20717Z" fill="white"/>
<path d="M54.2149 79.4972C41.0836 107.448 28.9866 124.741 26.3953 127.537C34.3456 121.597 52.4846 88.4072 54.2149 79.4972Z" fill="white"/>
</g>
<defs>
<clipPath id="clip0_16_329">
<rect width="130" height="133" fill="white"/>
</clipPath>
</defs>
</svg>
