<svg width="216" height="186" viewBox="0 0 216 186" fill="none" xmlns="http://www.w3.org/2000/svg">
<g filter="url(#filter0_f_19_69)">
<path d="M150.364 150.152C142.056 148.486 136.389 150.323 128.06 148.731C119.402 147.747 106.155 146.001 97.5745 144.318C86.6828 142.943 77.4349 142.019 66.3915 141.849C58.7291 142.334 53.8067 138.416 48.6961 134.634C43.4114 129.916 46.0995 127.729 41.6491 122.516C39.2443 118.445 36.4973 114.22 35 109.717C38.3229 105.109 45.6518 111.626 50.5632 110.153C56.9177 110.108 63.689 111.664 69.843 113.184C75.7149 113.26 79.5319 113.368 85.3132 113.86C91.9861 115.701 97.8299 119.478 104.704 120.831C110.82 124.278 117.745 117.723 124.647 119.372C129.455 120.73 130.806 126.05 135.868 127.274C140.584 130.181 146.121 131.438 151.347 133.35C156.361 136.531 155.764 144.652 153.416 149.009C152.483 149.551 151.424 149.877 150.364 150.152L150.364 150.152Z" fill="#B3B3B3"/>
<path d="M150.364 150.152C142.056 148.486 136.389 150.323 128.06 148.731C119.402 147.747 106.155 146.001 97.5745 144.318C86.6828 142.943 77.4349 142.019 66.3915 141.849C58.7291 142.334 53.8067 138.416 48.6961 134.634C43.4114 129.916 46.0995 127.729 41.6491 122.516C39.2443 118.445 36.4973 114.22 35 109.717C38.3229 105.109 45.6518 111.626 50.5632 110.153C56.9177 110.108 63.689 111.664 69.843 113.184C75.7149 113.26 79.5319 113.368 85.3132 113.86C91.9861 115.701 97.8299 119.478 104.704 120.831C110.82 124.278 117.745 117.723 124.647 119.372C129.455 120.73 130.806 126.05 135.868 127.274C140.584 130.181 146.121 131.438 151.347 133.35C156.361 136.531 155.764 144.652 153.416 149.009C152.483 149.551 151.424 149.877 150.364 150.152L150.364 150.152Z" stroke="black"/>
</g>
<path d="M105.661 36C103.701 36.3134 101.654 37.4358 101.914 39.4302C101.069 41.068 100.244 42.7148 99.4174 44.3514C98.2025 46.2534 96.8899 48.2144 96.8209 50.4761C96.5109 53.1069 94.2854 55.3444 94.601 58.0853C94.602 61.0775 94.6014 64.0705 94.601 67.0628C94.5174 67.2299 94.4463 67.4031 94.3894 67.5791C93.8381 69.9818 93.8444 72.489 92.8509 74.8107C91.7724 75.8653 91.4449 77.3264 91.2514 78.7024C90.9126 80.5683 90.7238 82.4332 90.5234 84.3141C90.0502 86.4094 89.2198 88.4272 88.7805 90.5357C87.8792 92.4005 89.0036 94.826 87.3783 96.4379C86.6244 98.7598 84.376 100.566 84.33 103.082C84.3837 103.945 85.0047 104.455 85.7897 104.886C85.61 105.352 85.4599 105.836 85.2481 106.203C84.4837 107.947 84.7717 109.85 84.6994 111.672C84.6758 112.035 84.7422 112.321 84.8752 112.553C85.2254 113.887 86.2503 115.653 87.4215 117.048C90.4911 119.31 91.0718 122.962 91.8363 126.245C92.0641 127.828 92.5401 129.239 93.1238 130.557C93.2001 130.837 93.3091 131.101 93.4824 131.331C94.3087 133.035 95.2817 134.602 96.0897 136.21C98.4865 139.176 103.763 137.629 106.009 140.783C108.215 143.09 111.397 145.131 114.954 144.688C122.196 146.058 129.617 146.531 136.859 147.821C143.101 147.949 149.347 147.836 155.59 147.873C156.378 149.105 160.754 148.925 163.921 148.347C164.451 148.498 164.95 148.625 165.355 148.702C165.869 148.955 166.476 148.962 167.285 148.479C169.299 146.677 171.83 145.683 174.637 145.333C177.006 144.719 179.534 144.418 181.752 143.587C182.342 141.103 181.294 138.525 180.744 136.059C179.485 133.705 179.399 131.034 178.958 128.482C178.696 125.994 177.899 123.59 177.535 121.137C177.563 119.57 178.1 116.819 177.57 115.461C177.576 115.427 177.576 115.392 177.578 115.354C177.633 114.698 177.579 114.047 177.488 113.399C177.5 112.958 177.486 112.476 177.441 111.947C177.317 111.577 177.205 111.203 177.108 110.827C177.098 110.709 177.092 110.59 177.086 110.472C176.9 109.377 176.865 108.265 176.886 107.164C176.774 106.12 176.636 105.069 176.344 104.054C176.305 102.555 176.3 101.055 176.229 99.581C176.025 96.264 177.328 91.5775 173.141 89.9356C169.195 87.3038 171.153 81.9934 170.696 78.177C171.385 75.5724 170.59 73.2123 168.935 71.3391C168.775 70.9886 168.522 70.6818 168.16 70.4452C167.316 68.5573 166.451 68.1571 162.895 67.3667C162.716 67.2529 162.541 67.1349 162.368 67.0149C162.229 65.0881 160.344 63.769 158.839 62.3003C157.194 60.811 156.234 59.633 154.773 58.2201C154.234 56.2241 152.563 54.7579 151.265 53.1505C149.108 51.1267 148.291 47.9774 145.287 46.7289C143.087 46.0341 141.451 44.2473 139.101 43.9375C137.711 44.1925 135.574 44.6776 134.643 43.7794C134 43.7268 133.377 43.6262 132.828 43.589C131.057 42.8954 129.283 42.2001 127.449 41.6657C123.86 39.4222 118.696 40.0816 115.643 37.2028C112.353 36.8856 108.972 36.0665 105.723 36.054L105.662 36.0024L105.661 36Z" fill="#666666" stroke="black" stroke-width="12"/>
<path d="M95.753 66.5283C96.2503 68.6237 97.4594 70.6458 97.0246 72.8496C96.9741 75.217 99.7509 78.5748 98.5457 80.7893C97.8635 82.6585 96.8343 84.2644 97.0495 86.2345C96.7963 88.2139 95.6236 89.5272 96.8319 91.2058C98.0437 93.2406 98.4597 95.5719 98.8667 97.8189C99.1421 100.105 101.605 102.396 101.595 104.692C101.76 106.657 101.631 113.477 98.8482 114.379C96.8536 115.186 93.2256 111.291 92.1807 113.358C91.5223 114.662 90.3643 114.295 90.4632 112.912C90.3894 110.92 91.3308 108.522 89.5655 106.907C88.4945 105.13 85.0824 105.097 84.9537 103.031C84.9993 100.544 87.2218 98.7592 87.9668 96.4646C89.5731 94.8715 88.4601 92.4756 89.3508 90.6327C89.785 88.5489 90.6055 86.5554 91.0731 84.4846C91.2712 82.6257 91.4603 80.7804 91.7951 78.9365C91.9863 77.5765 92.3087 76.1338 93.3745 75.0915C94.3563 72.7969 94.3498 70.3186 94.8947 67.944C95.0629 67.4236 95.35 66.9329 95.753 66.5283Z" fill="#666666"/>
<path d="M88.2802 103.283C86.5347 103.132 86.4536 105.089 85.8607 106.116C85.1052 107.84 85.3892 109.722 85.3178 111.523C85.196 113.389 87.5159 113.211 88.6929 114.075C90.5127 115.102 91.1929 117.014 91.9892 118.7C92.3701 120.241 92.3314 121.852 92.9655 123.34C93.421 124.752 92.9372 126.233 93.2669 127.667C93.6595 128.936 93.174 130.75 94.6694 131.5C96.5123 132.123 96.6829 129.872 97.6575 129.061C98.6903 127.906 100.386 127.229 102.032 127.467C103.617 127.268 103.603 125.251 103.318 124.218C102.438 123.227 101.031 122.77 100.134 121.815C99.1848 120.634 98.4757 119.159 96.9227 118.562C95.4422 118.129 95.0608 116.67 94.2013 115.66C93.3892 114.977 91.6978 114.907 92.1217 113.483C92.1518 112.152 92.3148 110.785 92.0292 109.471C91.1467 108.109 91.7345 106.161 90.2416 105.084C89.8415 104.297 89.068 103.743 88.2803 103.282L88.2802 103.283Z" fill="#666666"/>
<path d="M107.514 122.959C106.044 122.081 108.033 120.385 107.692 118.95C107.274 117.185 105.6 113.7 104.036 112.631C102.97 111.87 100.608 112.789 99.2611 112.439C96.2569 109.032 97.73 110.598 95.3656 110.583C94.7149 111.553 90.8383 112.284 90.7365 112.965C90.7584 113.976 91.3632 114.173 91.6693 115.153C91.8631 116.342 93.1228 117.409 93.6917 118.498C94.1836 119.648 95.0488 120.621 95.8818 121.582C96.3855 122.157 97.1626 122.407 97.9222 122.581C99.0479 122.83 99.7608 123.666 100.631 124.259C101.59 124.632 102.763 124.832 103.171 125.832C104.166 127.563 106.365 126.171 106.667 125.528C107.1 124.865 108.114 120.327 108.983 120.177C109.142 120.136 107.358 123.01 107.514 122.959L107.514 122.959Z" fill="#4D4D4D"/>
<path d="M142.08 141.533C140.468 141.446 140.087 136.725 138.33 136.7C136.861 135.822 135.371 134.878 133.973 133.945C133.015 133.139 129.537 133.104 128.359 132.358C126.731 131.516 125.118 130.65 123.694 129.544C122.432 128.861 120.779 130.103 119.553 129.382C118.135 128.874 117.462 128.196 116.116 127.49C114.41 126.825 110.419 118.354 108.624 117.853C107.059 117.506 107.663 123.517 105.914 124.256C104.576 125.292 103.15 126.865 103.475 128.262C104.248 129.325 106.446 131.13 106.998 132.296C107.577 133.867 108.18 135.473 109.451 136.719C110.472 137.604 111.413 138.598 112.584 139.33C113.865 140.329 114.222 142.107 115.599 142.978C117.262 143.259 119.856 142.589 121.212 143.524C122.705 144.043 124.24 144.5 125.862 144.395C128.06 144.349 130.27 144.502 132.445 144.145C134.163 143.87 136.178 144.574 137.595 143.345C139.676 144.35 143.74 143.442 142.079 141.533L142.08 141.533Z" fill="#4D4D4D"/>
<path d="M160.888 145.547C163.746 144.797 163.983 149.662 166.938 147.898C168.928 146.117 171.431 145.133 174.205 144.787C176.547 144.181 179.045 143.884 181.237 143.063C181.819 140.608 180.783 138.06 180.24 135.622C178.996 133.296 178.91 130.657 178.475 128.135C178.216 125.676 177.429 123.301 177.068 120.877C177.11 118.584 178.256 113.714 175.443 114.569C173.87 116.368 172.763 117.658 169.848 118.082C167.278 118.944 163.645 118.931 160.967 119.531C156.478 120.937 152.904 124.089 148.177 124.696C145.607 125.477 143.044 126.362 140.328 126.666C137.476 127.396 134.669 128.232 131.934 129.246C129.844 129.859 127.645 130.176 125.631 130.994C122.734 131.167 126.622 132.831 127.348 133.284C129.455 135.313 132.74 135.672 135.092 137.403C137.785 138.426 139.589 140.608 139.766 143.244C139.691 145.097 141.927 147.433 143.283 145.057C144.242 143.366 147.521 143.893 148.928 142.273C151.779 141.961 154.65 141.899 157.506 141.726C160.546 141.45 161.308 143.107 160.888 145.547L160.888 145.547Z" fill="#999999"/>
<path d="M88.6239 111.141C83.4565 108.586 85.3576 113.676 88.0095 116.837C91.0432 119.072 91.6173 122.68 92.3727 125.924C92.9414 129.877 95.0565 132.748 96.5759 135.772C98.9446 138.704 104.158 137.174 106.378 140.291C108.558 142.571 111.705 144.589 115.22 144.151C122.377 145.504 129.712 145.971 136.869 147.246C143.038 147.372 149.209 147.261 155.379 147.297C157.186 150.123 178.08 145.439 158.855 145.75C155.364 143.967 151.189 144.426 147.368 143.833C143.689 144.022 140.069 143.447 136.442 143.205C132.071 143.177 127.697 143.32 123.328 143.128C120.293 141.722 116.02 143.275 113.728 140.519C113.031 137.401 111.706 133.195 108.41 131.325C104.297 127.989 103.124 124.187 98.2681 121.551C94.8289 119.147 92.6874 114.879 89.9771 111.955C89.5811 111.618 89.1274 111.331 88.6239 111.14L88.6239 111.141Z" fill="#1A1A1A"/>
<path d="M142.092 145.839C143.723 145.314 144.516 143.751 146.032 143.062C147.383 142.098 149.15 141.479 150.888 141.763C152.57 141.794 154.253 141.352 155.934 141.423C156.979 141.879 158.802 140.703 159.89 140.758C160.718 141.094 164.656 143.375 164.561 144.078C166.727 144.743 168.747 145.357 168.747 146.121C168.747 146.884 167.284 148.131 166.56 148.393C166.518 149.08 160.192 146.648 159.61 146.473C158.133 145.935 156.498 146.092 154.942 146.14C152.537 146.211 150.129 146.05 147.723 146.137C146.057 146.537 144.244 146.648 142.592 146.13C142.414 146.05 142.245 145.954 142.092 145.839L142.092 145.839Z" fill="#333333"/>
<path d="M105.813 36.7879C103.407 38.7419 102.04 37.4315 102.984 40.2766C102.247 45.2351 98.2588 49.2515 97.6144 54.1977C97.7257 58.8233 96.0259 63.2685 95.7465 67.8014C97.3354 71.9587 99.3059 76.359 96.5854 80.5592C95.7955 84.5939 95.9703 88.794 96.3015 92.873C99.4844 95.6404 98.6061 99.7524 99.567 103.337C101.972 106.862 97.8534 110.638 100.199 113.684C105.379 114.787 104.606 121.287 108.095 123.332C109.617 127.607 113.514 126.534 118.112 130.386C122.59 132.775 127.703 131.409 132.649 131.564C136.924 131.423 139.862 127.467 144.597 127.835C150.235 128.457 153.325 124.382 158.01 122.626C161.867 119.962 166.594 119.588 171.188 118.927C174.475 117.717 177.457 117.481 176.974 111.794C175.658 107.895 175.969 103.637 175.774 99.5731C175.573 96.295 176.862 91.6638 172.725 90.0411C168.824 87.4401 170.758 82.1924 170.305 78.4202C171.434 74.1596 168.551 70.5528 164.427 68.7133C158.562 66.1191 156.32 60.2978 152.121 56.2076C149.466 52.754 147.327 47.9303 142.262 46.9493C137.021 46.4051 132.519 43.7767 127.567 42.3343C124.021 40.1168 118.916 40.7669 115.899 37.9217C112.551 37.599 109.109 36.7507 105.812 36.7873L105.813 36.7879Z" fill="#B3B3B3"/>
<path d="M134.674 44.4216C132.633 44.2545 130.798 43.6129 130.935 46.0524C130.937 47.9993 134.392 47.5931 134.502 49.6961C136.25 50.8654 137.529 52.7958 139.634 53.3639C142.567 53.1895 142.047 55.9872 142.483 57.7108C143.203 59.7322 144.967 61.2647 146.178 63.0593C147.78 65.3184 150.545 66.6887 151.942 69.0752C153.046 70.9065 153.457 73.0311 154.954 74.677C155.502 76.2502 156.781 77.8776 158.816 77.3174C160.852 77.569 164.335 79.0366 165.283 76.7037C168.203 76.233 169.985 72.2048 167.801 70.7776C166.927 68.8234 166.038 68.4804 162.086 67.6198C162.091 65.5869 160.136 64.239 158.589 62.7289C156.961 61.254 156.013 60.0879 154.568 58.6916C154.036 56.7189 152.387 55.2708 151.104 53.6823C148.973 51.6822 148.164 48.5692 145.194 47.3353C143.02 46.6486 141.405 44.8829 139.082 44.5768C137.709 44.8287 135.595 45.3081 134.674 44.4205L134.674 44.4216Z" fill="#E6E6E6"/>
<path d="M106.037 36.7358C104.1 37.0456 102.076 38.1548 102.333 40.1259C101.498 41.7445 100.683 43.3707 99.8661 44.9881C98.6653 46.8678 97.3657 48.8079 97.2975 51.0432C96.9911 53.6432 94.793 55.8533 95.1049 58.5621C95.1064 62.9671 95.104 67.3721 95.1049 71.777C94.2228 73.4194 94.752 75.3139 94.2104 76.9937C94.1375 78.5293 93.9495 80.4468 94.3273 81.7688C97.4579 82.0156 97.3478 79.2388 97.7947 77.5446C98.8826 75.9434 98.2448 73.7676 98.8286 71.9878C99.1663 70.1967 99.5209 68.4026 100.622 66.8596C101.475 64.6624 102.673 62.5631 104.345 60.7796C105.553 59.24 105.918 57.2625 105.186 55.4816C104.638 53.7816 103.949 52.083 104.178 50.2832C104.181 48.1167 104.176 45.9503 104.178 43.7838C105.313 42.4944 106.745 41.5152 108.436 40.951C108.991 40.7176 108.765 39.7436 108.901 39.4455C109.02 39.1819 108.313 38.6159 107.275 38.6756C105.831 38.6349 104.459 38.6157 106.264 36.9314" fill="#808080"/>
<path d="M175.145 100.936C173.757 100.677 172.57 101.783 171.163 101.522C168.494 101.52 165.825 101.51 163.155 101.519C162.129 100.832 160.629 101.25 159.692 100.378C158.343 99.7506 157.146 98.8988 155.718 98.4398C154.641 97.8214 153.336 97.8784 152.206 97.3877C151.296 97.5303 152.801 98.7032 152.775 99.2444C153.116 100.246 153.499 101.212 153.994 102.156C154.356 103.189 154.796 104.231 155.69 104.993C156.637 106.068 157.346 107.345 157.675 108.673C158.599 108.896 158.627 110.112 159.345 110.76C159.976 111.555 160.415 112.517 160.236 113.508C160.423 115.073 162.403 114.585 163.571 114.842C165.184 115.129 166.846 114.7 168.447 115.12C169.527 115.28 170.652 115.156 171.74 115.344C172.661 115.606 173.551 115.44 174.488 115.486C175.317 115.427 177.065 116.281 177.11 115.16C177.248 113.535 176.702 111.951 176.623 110.335C176.438 109.253 176.405 108.155 176.425 107.067C176.277 105.674 176.078 104.273 175.526 102.957C175.35 102.291 175.368 101.593 175.145 100.936Z" fill="#999999"/>
<defs>
<filter id="filter0_f_19_69" x="8.64725" y="81.744" width="172.82" height="94.7207" filterUnits="userSpaceOnUse" color-interpolation-filters="sRGB">
<feFlood flood-opacity="0" result="BackgroundImageFix"/>
<feBlend mode="normal" in="SourceGraphic" in2="BackgroundImageFix" result="shape"/>
<feGaussianBlur stdDeviation="12.8988" result="effect1_foregroundBlur_19_69"/>
</filter>
</defs>
</svg>
